HIERARCHY
ROOT Hips
{
	OFFSET 0.000000 35.082581 0.000000
	CHANNELS 6 Xposition Yposition Zposition Xrotation Yrotation Zrotation 
	JOINT Spine
	{
		OFFSET 0.000000 6.876099 0.125700
		CHANNELS 3 Xrotation Yrotation Zrotation
		JOINT Spine1
		{
			OFFSET 0.000000 5.730043 0.104720
			CHANNELS 3 Xrotation Yrotation Zrotation
			JOINT Spine1_split
			{
				OFFSET 0.000000 5.730043 0.104720
				CHANNELS 3 Xrotation Yrotation Zrotation
				JOINT Spine2
				{
					OFFSET 0.000000 5.730043 0.104720
					CHANNELS 3 Xrotation Yrotation Zrotation
					JOINT Neck
					{
						OFFSET 0.000000 10.314075 0.188496
						CHANNELS 3 Xrotation Yrotation Zrotation
						JOINT Head
						{
							OFFSET 0.000000 7.643700 -2.377400
							CHANNELS 3 Xrotation Yrotation Zrotation
							JOINT HeadTop_End
							{
								OFFSET 0.000000 43.788605 -13.619600
								CHANNELS 3 Xrotation Yrotation Zrotation
								End Site
								{
									OFFSET 0.000000 0.000000 0.000000
								}
							}
						}
					}
					JOINT LeftShoulder
					{
						OFFSET 2.196100 4.412489 0.087492
						CHANNELS 3 Xrotation Yrotation Zrotation
						JOINT LeftShoulder_split
						{
							OFFSET 2.196100 4.412489 0.087492
							CHANNELS 3 Xrotation Yrotation Zrotation
							JOINT LeftArm
							{
								OFFSET 8.771219 -2.981674 -0.026999
								CHANNELS 3 Xrotation Yrotation Zrotation
								JOINT LeftForeArm
								{
									OFFSET 8.512804 0.000000 -0.000000
									CHANNELS 3 Xrotation Yrotation Zrotation
									JOINT LeftHand
									{
										OFFSET 18.484802 0.000000 -0.000000
										CHANNELS 3 Xrotation Yrotation Zrotation
										JOINT LeftHandThumb1
										{
											OFFSET 2.499420 -1.158070 2.653252
											CHANNELS 3 Xrotation Yrotation Zrotation
											JOINT LeftHandThumb2
											{
												OFFSET 2.370079 -1.368366 1.368366
												CHANNELS 3 Xrotation Yrotation Zrotation
												JOINT LeftHandThumb3
												{
													OFFSET 2.676727 -1.545410 1.545409
													CHANNELS 3 Xrotation Yrotation Zrotation
													JOINT LeftHandThumb4
													{
														OFFSET 1.692226 -0.977005 0.977007
														CHANNELS 3 Xrotation Yrotation Zrotation
														End Site
														{
															OFFSET 0.000000 0.000000 0.000000
														}
													}
												}
											}
										}
										JOINT LeftHandIndex1
										{
											OFFSET 7.924831 -0.457527 2.345128
											CHANNELS 3 Xrotation Yrotation Zrotation
											JOINT LeftHandIndex2
											{
												OFFSET 3.643303 0.000000 0.000000
												CHANNELS 3 Xrotation Yrotation Zrotation
												JOINT LeftHandIndex3
												{
													OFFSET 3.810799 0.000000 0.000000
													CHANNELS 3 Xrotation Yrotation Zrotation
													JOINT LeftHandIndex4
													{
														OFFSET 2.403702 0.000000 0.000000
														CHANNELS 3 Xrotation Yrotation Zrotation
														End Site
														{
															OFFSET 0.000000 0.000000 0.000000
														}
													}
												}
											}
										}
										JOINT LeftHandMiddle1
										{
											OFFSET 8.563995 0.000000 -0.000000
											CHANNELS 3 Xrotation Yrotation Zrotation
											JOINT LeftHandMiddle2
											{
												OFFSET 3.861618 0.000000 0.000000
												CHANNELS 3 Xrotation Yrotation Zrotation
												JOINT LeftHandMiddle3
												{
													OFFSET 3.701603 0.000000 0.000000
													CHANNELS 3 Xrotation Yrotation Zrotation
													JOINT LeftHandMiddle4
													{
														OFFSET 2.322544 0.000000 0.000000
														CHANNELS 3 Xrotation Yrotation Zrotation
														End Site
														{
															OFFSET 0.000000 0.000000 0.000000
														}
													}
												}
											}
										}
										JOINT LeftHandRing1
										{
											OFFSET 8.426460 -0.424637 -3.286992
											CHANNELS 3 Xrotation Yrotation Zrotation
											JOINT LeftHandRing2
											{
												OFFSET 3.126408 0.000000 0.000000
												CHANNELS 3 Xrotation Yrotation Zrotation
												JOINT LeftHandRing3
												{
													OFFSET 3.085026 0.000000 0.000000
													CHANNELS 3 Xrotation Yrotation Zrotation
													JOINT LeftHandRing4
													{
														OFFSET 1.644005 0.000000 0.000000
														CHANNELS 3 Xrotation Yrotation Zrotation
														End Site
														{
															OFFSET 0.000000 0.000000 0.000000
														}
													}
												}
											}
										}
									}
								}
							}
						}
					}
					JOINT RightShoulder
					{
						OFFSET -2.196100 4.412496 0.070690
						CHANNELS 3 Xrotation Yrotation Zrotation
						JOINT RightShoulder_split
						{
							OFFSET -2.196100 4.412496 0.070690
							CHANNELS 3 Xrotation Yrotation Zrotation
							JOINT RightArm
							{
								OFFSET -8.771282 -2.981682 -0.094208
								CHANNELS 3 Xrotation Yrotation Zrotation
								JOINT RightForeArm
								{
									OFFSET -8.494598 0.000000 0.000000
									CHANNELS 3 Xrotation Yrotation Zrotation
									JOINT RightHand
									{
										OFFSET -18.483803 0.000000 0.000001
										CHANNELS 3 Xrotation Yrotation Zrotation
										JOINT RightHandThumb1
										{
											OFFSET -2.527351 -1.008072 2.575253
											CHANNELS 3 Xrotation Yrotation Zrotation
											JOINT RightHandThumb2
											{
												OFFSET -2.321518 -1.340328 1.340329
												CHANNELS 3 Xrotation Yrotation Zrotation
												JOINT RightHandThumb3
												{
													OFFSET -2.657753 -1.534454 1.534455
													CHANNELS 3 Xrotation Yrotation Zrotation
													JOINT RightHandThumb4
													{
														OFFSET -1.807510 -1.043568 1.043567
														CHANNELS 3 Xrotation Yrotation Zrotation
														End Site
														{
															OFFSET 0.000000 0.000000 0.000000
														}
													}
												}
											}
										}
										JOINT RightHandIndex1
										{
											OFFSET -8.811420 0.015533 2.887987
											CHANNELS 3 Xrotation Yrotation Zrotation
											JOINT RightHandIndex2
											{
												OFFSET -3.537502 0.000000 0.000000
												CHANNELS 3 Xrotation Yrotation Zrotation
												JOINT RightHandIndex3
												{
													OFFSET -3.356201 0.000000 0.000000
													CHANNELS 3 Xrotation Yrotation Zrotation
													JOINT RightHandIndex4
													{
														OFFSET -1.933098 0.000000 0.000000
														CHANNELS 3 Xrotation Yrotation Zrotation
														End Site
														{
															OFFSET 0.000000 0.000000 0.000000
														}
													}
												}
											}
										}
										JOINT RightHandMiddle1
										{
											OFFSET -8.178135 0.000000 0.000000
											CHANNELS 3 Xrotation Yrotation Zrotation
											JOINT RightHandMiddle2
											{
												OFFSET -3.901302 0.000000 0.000000
												CHANNELS 3 Xrotation Yrotation Zrotation
												JOINT RightHandMiddle3
												{
													OFFSET -3.909599 0.000000 0.000000
													CHANNELS 3 Xrotation Yrotation Zrotation
													JOINT RightHandMiddle4
													{
														OFFSET -2.376003 0.000000 0.000000
														CHANNELS 3 Xrotation Yrotation Zrotation
														End Site
														{
															OFFSET 0.000000 0.000000 0.000000
														}
													}
												}
											}
										}
										JOINT RightHandRing1
										{
											OFFSET -7.559013 0.014137 -2.865403
											CHANNELS 3 Xrotation Yrotation Zrotation
											JOINT RightHandRing2
											{
												OFFSET -3.449306 0.000000 0.000000
												CHANNELS 3 Xrotation Yrotation Zrotation
												JOINT RightHandRing3
												{
													OFFSET -3.362106 0.000000 0.000000
													CHANNELS 3 Xrotation Yrotation Zrotation
													JOINT RightHandRing4
													{
														OFFSET -2.076401 0.000000 0.000000
														CHANNELS 3 Xrotation Yrotation Zrotation
														End Site
														{
															OFFSET 0.000000 0.000000 0.000000
														}
													}
												}
											}
										}
									}
								}
							}
						}
					}
				}
			}
		}
	}
	JOINT LeftUpLeg
	{
		OFFSET 10.205400 -3.823500 0.155100
		CHANNELS 3 Xrotation Yrotation Zrotation
		JOINT LeftLeg
		{
			OFFSET 0.708757 -12.982077 0.567790
			CHANNELS 3 Xrotation Yrotation Zrotation
			JOINT LeftFoot
			{
				OFFSET -0.708756 -10.717838 -2.184338
				CHANNELS 3 Xrotation Yrotation Zrotation
				JOINT LeftToeBase
				{
					OFFSET 0.108149 -7.191104 7.560241
					CHANNELS 3 Xrotation Yrotation Zrotation
					JOINT LeftToe_End
					{
						OFFSET 0.070230 0.081724 4.490308
						CHANNELS 3 Xrotation Yrotation Zrotation
						End Site
						{
							OFFSET 0.000000 0.000000 0.000000
						}
					}
				}
			}
		}
	}
	JOINT RightUpLeg
	{
		OFFSET -10.205400 -3.823500 0.005500
		CHANNELS 3 Xrotation Yrotation Zrotation
		JOINT RightLeg
		{
			OFFSET -0.708756 -12.982134 0.610632
			CHANNELS 3 Xrotation Yrotation Zrotation
			JOINT RightFoot
			{
				OFFSET 0.708754 -10.717769 -1.945823
				CHANNELS 3 Xrotation Yrotation Zrotation
				JOINT RightToeBase
				{
					OFFSET -0.108140 -7.191069 7.372968
					CHANNELS 3 Xrotation Yrotation Zrotation
					JOINT RightToe_End
					{
						OFFSET -0.070227 0.081735 4.479403
						CHANNELS 3 Xrotation Yrotation Zrotation
						End Site
						{
							OFFSET 0.000000 0.000000 0.000000
						}
					}
				}
			}
		}
	}
}
MOTION
Frames: 6
Frame Time: 0.016667
0.777874 34.121777 -0.166057 -3.756024 -5.234643 -3.080719 3.316133 1.527156 2.056946 1.151563 0.341255 1.563088 0.000000 0.000000 0.000000 1.124399 0.369602 1.558065 5.626310 -0.076129 0.454684 -7.563349 1.377077 -0.080248 0.000000 0.000000 -0.000000 1.046809 -17.441257 -12.316066 0.000000 0.000000 0.000000 3.916266 -19.989247 -69.765232 -0.000004 -1.459367 -0.000004 -33.230393 -1.364809 -6.186627 -0.663007 2.160308 4.832501 11.845353 25.425975 17.060295 -13.814346 3.531938 9.046598 -0.000002 -0.000002 -0.000004 0.019846 -0.969582 -7.593529 0.267779 1.752588 -17.372564 0.057679 0.820916 -8.037628 -0.000000 -0.000000 -0.000000 -0.076314 2.665778 -15.696854 0.268777 1.755802 -17.405520 0.300524 1.853979 -18.413335 0.000000 0.000002 -0.000000 0.136886 3.641772 -21.133541 0.386301 2.093950 -20.903096 0.282652 1.799438 -17.852713 -0.000000 0.000001 0.000003 1.209155 15.345174 14.705930 0.000000 0.000000 0.000000 13.158870 27.555128 58.785171 -0.000001 6.693735 0.000004 -20.179107 -0.514102 6.782798 -1.665246 -0.174476 -4.219037 12.710944 -29.825336 -16.130936 -15.549423 -3.559413 -12.707144 0.000003 -0.000002 -0.000002 0.037221 1.273358 6.824646 0.213728 -1.396031 17.407036 0.046035 -0.653848 8.053207 0.000001 -0.000001 -0.000000 -0.136252 -2.205100 14.998891 0.214473 -1.398361 17.436889 0.239759 -1.476523 18.446263 0.000001 0.000001 0.000002 0.030601 -3.075761 20.451039 0.308471 -1.668286 20.948530 0.225815 -1.434036 17.897093 0.000000 -0.000003 -0.000005 -15.583686 13.062166 13.739539 26.639375 0.842395 3.409893 -7.992462 2.262896 -9.481482 -4.940074 -0.000000 0.000003 0.000001 -0.000001 -0.000000 6.556127 -9.885923 1.510257 7.498966 -8.909514 -3.087558 -9.127960 -3.128159 6.210751 -7.282566 0.000049 0.000004 -0.000001 -0.000001 0.000000 
0.781314 34.121414 -0.169291 -3.777579 -5.381212 -3.115932 3.316092 1.527713 2.058164 1.151563 0.341256 1.563088 0.000000 0.000000 0.000000 1.124399 0.369601 1.558066 5.641319 -0.076129 0.444039 -7.562832 1.382774 -0.108852 -0.000000 0.000000 0.000000 1.048136 -17.435439 -12.315646 0.000000 0.000000 0.000000 3.889511 -20.129823 -69.771011 -0.000004 -1.500352 -0.000005 -33.176469 -1.403245 -6.179766 -0.731348 2.210472 4.906270 11.849513 25.426134 17.046984 -13.814340 3.531938 9.046600 0.000001 0.000000 0.000001 0.037639 -0.954835 -7.569170 0.267774 1.752586 -17.372564 0.057662 0.820917 -8.037615 0.000000 -0.000000 0.000001 -0.085771 2.628834 -15.661554 0.268456 1.754726 -17.394436 0.300175 1.852928 -18.402509 -0.000000 0.000001 -0.000002 0.132363 3.630383 -21.141433 0.386304 2.093955 -20.903114 0.282653 1.799433 -17.852690 0.000000 0.000001 -0.000002 1.208463 15.358338 14.695756 0.000000 0.000000 0.000000 13.135321 27.547107 58.785136 0.000006 6.665728 -0.000004 -20.179203 -0.509193 6.769444 -1.578913 0.146362 -3.611991 12.359133 -29.465965 -16.752489 -15.196324 -6.264811 -13.853280 0.000003 -0.000003 -0.000006 0.071389 1.294372 6.594603 0.207547 -1.376199 17.151858 0.044786 -0.644976 7.943256 -0.000002 -0.000001 -0.000001 -0.135847 -2.183623 14.745364 0.208857 -1.380424 17.206145 0.238477 -1.472625 18.395748 0.000001 0.000000 0.000002 0.029739 -3.067577 20.320448 0.308028 -1.667203 20.934468 0.225497 -1.433041 17.884104 -0.000001 -0.000000 0.000003 -15.523405 13.075309 13.808880 26.705234 0.953459 3.361572 -8.087671 2.272515 -9.493281 -4.940072 0.000004 -0.000000 0.000000 0.000001 -0.000000 6.480285 -9.890940 1.551661 7.524458 -8.558207 -3.138537 -9.060276 -3.324471 6.159817 -7.282565 0.000055 0.000004 0.000001 -0.000000 -0.000000 
0.784422 34.119843 -0.172193 -3.800754 -5.533169 -3.150517 3.316068 1.528380 2.058789 1.151563 0.341256 1.563089 0.000000 0.000000 0.000000 1.124399 0.369602 1.558066 5.658005 -0.073427 0.433889 -7.562017 1.396771 -0.134893 0.000000 0.000000 0.000000 1.049195 -17.430827 -12.315344 0.000000 0.000000 0.000000 3.861911 -20.202552 -69.781338 -0.000002 -1.523119 -0.000002 -33.149555 -1.438187 -6.183274 -0.802509 2.237488 4.968523 11.855478 25.426383 17.027957 -13.814343 3.531931 9.046606 -0.000000 -0.000002 -0.000000 0.044155 -0.951271 -7.556544 0.267766 1.752583 -17.372561 0.057688 0.820920 -8.037622 0.000000 0.000001 0.000004 -0.094903 2.594731 -15.647840 0.268338 1.754385 -17.391009 0.300077 1.852621 -18.399297 0.000001 -0.000001 -0.000002 0.130831 3.627161 -21.159305 0.386305 2.093952 -20.903097 0.282649 1.799439 -17.852714 0.000000 -0.000000 -0.000001 1.206577 15.367502 14.694073 0.000000 0.000000 0.000000 13.125061 27.554838 58.770752 0.000006 6.622052 -0.000006 -20.182828 -0.523826 6.785147 -1.413014 0.635826 -2.930302 11.971247 -29.040212 -17.421497 -14.788297 -9.187076 -14.782847 0.000005 -0.000000 -0.000006 0.104996 1.310488 6.427151 0.200360 -1.352754 16.850802 0.043803 -0.637821 7.854466 0.000000 -0.000000 0.000001 -0.135442 -2.165785 14.534660 0.201532 -1.356612 16.900285 0.236581 -1.466902 18.321689 -0.000001 0.000003 0.000002 0.033618 -3.072507 20.193227 0.307461 -1.665701 20.914586 0.225024 -1.431562 17.865046 -0.000001 -0.000001 -0.000000 -15.462145 13.088783 13.880777 26.781546 1.067621 3.311641 -8.191439 2.283560 -9.509791 -4.940073 0.000010 0.000001 -0.000000 -0.000001 -0.000000 6.387484 -9.888950 1.587944 7.590114 -8.225486 -3.186532 -9.014482 -3.509189 6.113073 -7.282578 0.000073 0.000008 0.000000 -0.000001 0.000000 
0.787427 34.117847 -0.174547 -3.825284 -5.690339 -3.185696 3.316050 1.529081 2.059499 1.151563 0.341256 1.563088 0.000000 0.000000 0.000000 1.124399 0.369601 1.558065 5.675496 -0.070797 0.424323 -7.560891 1.416646 -0.159047 -0.000000 0.000000 -0.000000 1.050077 -17.426997 -12.315066 0.000000 0.000000 0.000000 3.834555 -20.228942 -69.793912 0.000005 -1.533925 -0.000022 -33.143288 -1.469020 -6.193454 -0.859827 2.255353 5.016265 11.860740 25.426602 17.011027 -13.814338 3.531924 9.046598 -0.000005 0.000000 -0.000006 0.045883 -0.951696 -7.554053 0.267763 1.752578 -17.372559 0.057687 0.820926 -8.037633 -0.000000 0.000001 0.000003 -0.102348 2.568136 -15.649405 0.268297 1.754230 -17.389388 0.300022 1.852474 -18.397765 0.000000 0.000001 0.000002 0.131274 3.629445 -21.184117 0.386298 2.093947 -20.903084 0.282656 1.799444 -17.852707 -0.000000 -0.000001 0.000001 1.203743 15.373933 14.698671 0.000000 0.000000 0.000000 13.129139 27.577807 58.738097 0.000003 6.568089 -0.000002 -20.190177 -0.555382 6.822974 -1.186848 1.249701 -2.178567 11.554267 -28.561314 -18.150377 -14.356798 -12.250603 -15.529922 0.000002 -0.000002 -0.000000 0.135008 1.320364 6.337466 0.192930 -1.327970 16.533030 0.043098 -0.632744 7.791520 0.000002 -0.000000 -0.000002 -0.135122 -2.153222 14.386327 0.193492 -1.329773 16.555967 0.234527 -1.460736 18.242052 0.000000 -0.000001 -0.000001 0.040901 -3.088785 20.111069 0.307200 -1.665020 20.905583 0.224805 -1.430914 17.856729 0.000001 -0.000001 0.000001 -15.396701 13.104112 13.954992 26.860788 1.184385 3.260774 -8.300312 2.295222 -9.530171 -4.940078 0.000004 0.000002 0.000001 -0.000001 -0.000000 6.289501 -9.886874 1.622360 7.667579 -7.884729 -3.232076 -8.973900 -3.695139 6.064519 -7.282582 0.000063 0.000008 -0.000000 -0.000000 0.000000 
0.790354 34.115372 -0.176346 -3.850973 -5.852601 -3.221864 3.316024 1.529817 2.060247 1.151564 0.341254 1.563088 0.000000 0.000000 0.000000 1.124398 0.369603 1.558065 5.693594 -0.068300 0.415615 -7.559566 1.446650 -0.179899 -0.000000 -0.000000 -0.000000 1.050909 -17.423352 -12.314814 0.000000 0.000000 0.000000 3.808580 -20.203667 -69.807942 -0.000000 -1.531664 -0.000005 -33.160445 -1.493178 -6.210399 -0.893357 2.266899 5.044458 11.863860 25.426735 17.001032 -13.814350 3.531926 9.046608 -0.000004 0.000001 -0.000002 0.045229 -0.953520 -7.562266 0.267770 1.752580 -17.372571 0.057672 0.820918 -8.037638 0.000000 0.000000 -0.000000 -0.107217 2.551898 -15.663091 0.268269 1.754147 -17.388504 0.299982 1.852377 -18.396846 -0.000000 -0.000000 -0.000001 0.133460 3.636344 -21.212338 0.386308 2.093952 -20.903116 0.282653 1.799435 -17.852704 -0.000000 -0.000000 0.000002 1.199736 15.377515 14.710624 0.000000 0.000000 0.000000 13.152631 27.622938 58.680512 -0.000002 6.503547 -0.000002 -20.198235 -0.604038 6.887975 -0.884029 2.002779 -1.334098 11.096513 -28.015882 -18.976151 -13.874430 -15.462189 -16.025857 0.000003 0.000005 0.000002 0.156848 1.325196 6.366494 0.185476 -1.302558 16.207633 0.042828 -0.630693 7.766202 -0.000002 -0.000001 -0.000003 -0.135641 -2.147137 14.342987 0.184925 -1.300616 16.182866 0.232660 -1.455044 18.168450 0.000001 -0.000002 -0.000005 0.051661 -3.118616 20.120303 0.307825 -1.666636 20.926800 0.225363 -1.432606 17.878577 -0.000001 -0.000001 -0.000000 -15.328647 13.121305 14.032029 26.945578 1.303330 3.209355 -8.415678 2.307794 -9.554200 -4.940083 0.000000 0.000004 -0.000000 -0.000001 -0.000000 6.186150 -9.883745 1.655316 7.757049 -7.538221 -3.275046 -8.938713 -3.881263 6.014318 -7.287472 0.000061 0.000006 -0.000000 0.000001 0.000000 
0.793211 34.112476 -0.177606 -3.877886 -6.019654 -3.259092 3.315996 1.530581 2.063321 1.151564 0.343115 1.563089 0.000000 0.000000 0.000000 1.124399 0.369602 1.561063 5.712020 -0.066509 0.407908 -7.558024 1.480110 -0.199187 -0.000000 0.000000 -0.000000 1.051788 -17.419492 -12.314532 0.000000 0.000000 0.000000 3.785861 -20.129500 -69.821404 0.000018 -1.517100 -0.000005 -33.197315 -1.507684 -6.232758 -0.898622 2.274606 5.051772 11.863646 25.426711 17.001565 -13.814345 3.531932 9.046603 -0.000001 -0.000003 -0.000000 0.042915 -0.957013 -7.577977 0.267769 1.752583 -17.372561 0.057673 0.820918 -8.037630 0.000001 -0.000000 0.000003 -0.109215 2.546240 -15.680234 0.268250 1.754099 -17.388048 0.299985 1.852341 -18.396414 0.000001 0.000001 0.000001 0.136516 3.645229 -21.236866 0.386305 2.093948 -20.903104 0.282654 1.799436 -17.852697 -0.000000 0.000001 -0.000003 1.194314 15.379346 14.729675 0.000000 0.000000 0.000000 13.198883 27.694768 58.594861 -0.000004 6.431252 0.000000 -20.202086 -0.664276 6.976498 -0.500593 2.886512 -0.386661 10.592689 -27.395252 -19.929471 -13.314177 -18.802230 -16.208435 -0.000002 0.000002 -0.000000 0.163875 1.328479 6.544890 0.178220 -1.277330 15.885178 0.043020 -0.632201 7.784944 -0.000000 0.000000 -0.000003 -0.138545 -2.145862 14.449689 0.176470 -1.271149 15.806361 0.231529 -1.451556 18.123212 -0.000002 -0.000001 -0.000002 0.063849 -3.157929 20.270977 0.309956 -1.672210 21.000182 0.227221 -1.438356 17.952672 -0.000000 0.000001 0.000000 -15.258250 13.140364 14.111459 27.035805 1.424859 3.157862 -8.537309 2.320007 -9.581189 -4.940068 0.000006 -0.000000 -0.000000 -0.000002 -0.000000 6.079054 -9.879921 1.687309 7.855708 -7.186473 -3.315945 -8.907613 -4.067806 5.962657 -7.293413 0.000044 0.000003 -0.000000 -0.000001 -0.000000 
